HIERARCHY
ROOT Bip001_Pelvis
{
  OFFSET 7.937 94.8971 -8.5489
  CHANNELS 6 Xposition Yposition Zposition Zrotation Xrotation Yrotation
  JOINT Bip001_Spine
  {
    OFFSET 1.44608e-005 10.4157 -0.0118244
    CHANNELS 3 Zrotation Xrotation Yrotation
    JOINT Bip001_L_Thigh
    {
      OFFSET 11.2582 -10.4157 0.0118432
      CHANNELS 3 Zrotation Xrotation Yrotation
      JOINT Bip001_L_Calf
      {
        OFFSET -0.720717 -44.8687 0.366937
        CHANNELS 3 Zrotation Xrotation Yrotation
        JOINT Bip001_L_Foot
        {
          OFFSET -0.664439 -41.3745 -3.62995
          CHANNELS 3 Zrotation Xrotation Yrotation
          JOINT Bip001_L_Toe0
          {
            OFFSET 0.0541047 -10.4146 13.4033
            CHANNELS 3 Zrotation Xrotation Yrotation
            End Site
            {
              OFFSET -1.04503e-005 0 7.70137
            }
          }
        }
      }
    }
    JOINT Bip001_R_Thigh
    {
      OFFSET -11.2582 -10.4156 0.0118122
      CHANNELS 3 Zrotation Xrotation Yrotation
      JOINT Bip001_R_Calf
      {
        OFFSET 0.72059 -44.8687 0.36676
        CHANNELS 3 Zrotation Xrotation Yrotation
        JOINT Bip001_R_Foot
        {
          OFFSET 0.664321 -41.3745 -3.62979
          CHANNELS 3 Zrotation Xrotation Yrotation
          JOINT Bip001_R_Toe0
          {
            OFFSET -0.05417 -10.4146 13.4033
            CHANNELS 3 Zrotation Xrotation Yrotation
            End Site
            {
              OFFSET -1.04873e-005 0 7.70137
            }
          }
        }
      }
    }
    JOINT Bip001_Spine1
    {
      OFFSET 1.90638e-005 14.8539 1.10727
      CHANNELS 3 Zrotation Xrotation Yrotation
      JOINT Bip001_Spine2
      {
        OFFSET 2.28934e-005 14.7848 -1.7233
        CHANNELS 3 Zrotation Xrotation Yrotation
        JOINT Bip001_Neck
        {
          OFFSET 2.24514e-005 15.6905 -0.498826
          CHANNELS 3 Zrotation Xrotation Yrotation
          JOINT Bip001_L_Clavicle
          {
            OFFSET 6.17691 -0.000591152 0.00852867
            CHANNELS 3 Zrotation Xrotation Yrotation
            JOINT Bip001_L_UpperArm
            {
              OFFSET 11.773 -0.0611878 0.00197697
              CHANNELS 3 Zrotation Xrotation Yrotation
              JOINT Bip001_L_Forearm
              {
                OFFSET 26.4515 0.0817568 -2.19579
                CHANNELS 3 Zrotation Xrotation Yrotation
                JOINT Bip001_L_Hand
                {
                  OFFSET 32.8677 0.156744 1.67112
                  CHANNELS 3 Zrotation Xrotation Yrotation
                  JOINT Bip001_L_Finger0
                  {
                    OFFSET 6.16268 -2.25226 6.01674
                    CHANNELS 3 Zrotation Xrotation Yrotation
                    End Site
                    {
                      OFFSET 4.30499 -1.46662 0.618148
                    }
                  }
                  JOINT Bip001_L_Finger1
                  {
                    OFFSET 11.2957 -0.718374 -0.201963
                    CHANNELS 3 Zrotation Xrotation Yrotation
                    End Site
                    {
                      OFFSET 6.31952 -0.405163 -0.0802303
                    }
                  }
                }
              }
            }
          }
          JOINT Bip001_R_Clavicle
          {
            OFFSET -6.17691 -0.000574027 0.00851165
            CHANNELS 3 Zrotation Xrotation Yrotation
            JOINT Bip001_R_UpperArm
            {
              OFFSET -11.773 -0.0611516 0.00194365
              CHANNELS 3 Zrotation Xrotation Yrotation
              JOINT Bip001_R_Forearm
              {
                OFFSET -26.4514 0.0822334 -2.19736
                CHANNELS 3 Zrotation Xrotation Yrotation
                JOINT Bip001_R_Hand
                {
                  OFFSET -32.8677 0.156817 1.67144
                  CHANNELS 3 Zrotation Xrotation Yrotation
                  JOINT Bip001_R_Finger0
                  {
                    OFFSET -6.1627 -2.25224 6.0167
                    CHANNELS 3 Zrotation Xrotation Yrotation
                    End Site
                    {
                      OFFSET -4.30499 -1.46662 0.618134
                    }
                  }
                  JOINT Bip001_R_Finger1
                  {
                    OFFSET -11.2958 -0.718344 -0.201994
                    CHANNELS 3 Zrotation Xrotation Yrotation
                    End Site
                    {
                      OFFSET -6.31952 -0.405146 -0.0802475
                    }
                  }
                }
              }
            }
          }
          JOINT Bip001_Head
          {
            OFFSET 1.11782e-005 11.4912 2.09908
            CHANNELS 3 Zrotation Xrotation Yrotation
            End Site
            {
              OFFSET 2.95144e-005 21.2823 -2.83069e-005
            }
          }
        }
      }
    }
  }
}
MOTION
Frames:	6
Frame Time:	0.04
3.31011 95.1493 -8.1052 2.72966 0.510811 24.952 0.131475 0.616619 0.186206 2.59909 -11.0758 6.00136 1.16097 9.89994 -11.8662 -5.60773 1.15638 -8.87611 0.561221 -10.1044 -1.0987 -7.68169 -3.68909 -3.4888 2.79046 20.2985 -1.76333 -5.17258 -12.7953 -25.5406 1.03862 -11.2371 -2.33457 0.536522 1.23413 0.375149 0.536517 1.23412 0.375123 1.54141 0.837342 -7.58008 -28.6207 1.0406 -5.98004 -53.4251 36.901 11.6036 16.5479 4.79384 -29.7317 -6.00316 -0.3185 -2.94789 7.95139e-015 0 -1.59028e-015 7.95139e-015 0 -3.18055e-015 23.3666 6.43566 16.4623 30.7643 -43.0749 24.887 -41.5267 7.48807 74.0568 -48.042 0.775302 1.34654 4.77083e-015 2.38542e-015 -4.77083e-015 1.59028e-015 2.38542e-015 -3.97569e-015 -1.40056 7.18886 -6.50729 
3.28278 95.1994 -8.14271 2.65373 -0.150193 22.8098 0.204921 0.799416 0.252772 3.06798 -10.4852 7.15874 1.36819 10.189 -11.4505 -5.75245 0.690782 -8.51188 0.568479 -10.1006 -1.03875 -7.56721 -3.64424 -3.64597 2.47613 19.9415 -1.31458 -4.70885 -12.4863 -23.9413 0.625538 -11.263 -1.92771 0.586091 1.60014 0.507165 0.58609 1.60014 0.507154 1.78573 0.957944 -7.41283 -29.1405 1.11897 -6.56524 -54.7665 39.7576 13.6 16.4083 3.23047 -28.1545 -6.72646 -0.49805 -2.7668 -0 -9.54166e-015 -0 2.64834e-031 -9.54167e-015 1.59028e-015 25.63 6.80064 16.0918 30.6345 -42.9245 19.8845 -43.8158 6.32459 80.8763 -54.1375 0.193887 3.9225 -1.48969e-031 -1.59028e-015 -5.36719e-015 1.59028e-015 -3.18056e-015 -1.98785e-015 -1.45122 7.09292 -6.25994 
3.34914 95.2597 -8.19882 2.60563 -0.65945 20.9504 0.336151 0.973592 0.0945036 3.41252 -9.90658 6.9477 0.994669 10.2932 -10.0588 -5.67905 0.366356 -7.68591 0.571028 -10.0967 -1.01347 -7.58965 -3.66656 -2.86299 2.37249 19.5571 -0.897925 -4.44797 -12.119 -23.1659 0.381413 -11.2541 -1.74498 0.795287 1.94787 0.187774 0.795289 1.94787 0.187791 0.96393 1.00612 -6.65877 -28.8472 1.3572 -6.63806 -55.3547 41.1881 13.7683 16.1607 3.3507 -26.2714 -7.64511 -0.540743 -2.63015 1.59028e-015 -9.54166e-015 -0 7.95139e-016 -3.18056e-015 -0 27.2446 6.8892 15.9126 30.3232 -39.5418 13.5644 -47.9036 3.99978 84.3424 -57.2931 -1.5523 4.69436 1.59028e-015 -1.59028e-015 -1.19271e-015 5.51738e-033 -7.95139e-016 3.97569e-016 -1.00523 6.71889 -5.90577 
3.50325 95.3227 -8.28085 2.48331 -0.976567 19.1027 0.451715 1.08284 -0.0882789 3.72162 -9.47594 7.63595 0.725077 10.4556 -9.02877 -5.5296 0.0871022 -7.33394 0.588709 -10.1285 -1.04227 -7.64004 -3.82214 -2.0623 2.20645 19.1668 -0.8485 -4.04192 -11.7453 -22.0756 0.170265 -11.2759 -1.50746 0.982239 2.16497 -0.179795 0.982234 2.16496 -0.179805 -0.0724364 1.04089 -5.85785 -28.4329 1.66309 -6.80595 -54.1905 39.1418 11.6176 15.345 6.84025 -23.7778 -8.42746 -0.430582 -2.94491 7.95139e-016 6.36111e-015 -0 0 0 -7.95139e-016 29.0123 7.02894 15.9332 30.0594 -35.4928 5.81481 -49.3971 2.32244 86.7794 -56.8796 -2.23492 6.44786 -3.18055e-015 7.95139e-016 3.97569e-016 -7.72434e-032 1.59028e-015 2.78299e-015 -0.58266 6.49554 -5.55913 
3.83381 95.3653 -8.35433 2.53499 -1.32544 17.1461 0.438838 1.16851 -0.197637 3.82915 -8.83664 8.37561 0.526902 10.5459 -8.09895 -5.30836 -0.253144 -6.95571 0.592281 -10.1327 -1.03533 -7.92252 -3.9572 -2.06206 1.935 19.0588 -0.0543644 -3.66936 -11.5194 -20.8485 0.0343782 -11.3134 -1.29475 0.923313 2.33545 -0.399097 0.923319 2.33546 -0.399087 -0.335336 1.5146 -5.40049 -28.5411 1.52996 -7.4739 -54.7484 40.8325 12.6602 15.4916 5.35305 -23.8528 -9.3429 -0.668495 -2.10993 0 0 -0 1.59028e-015 -9.54167e-015 -7.95139e-016 30.7489 6.87641 16.0366 29.7623 -29.921 -1.77146 -48.8987 2.75349 86.6856 -54.3034 -2.98862 6.60575 -3.18055e-015 0 1.19271e-015 1.65522e-032 7.95139e-016 -1.19271e-015 -0.765769 5.91721 -5.15931 
3.97046 95.3692 -8.67476 1.82185 -1.6263 15.0115 0.51053 1.19966 -0.24829 4.83253 -9.2077 8.39347 -0.0101186 12.0222 -6.3825 -5.01881 -1.11853 -6.53745 0.617196 -10.1408 -0.991224 -7.2653 -4.41667 -0.74833 1.67048 18.6256 0.0899855 -3.39557 -10.8493 -20.1451 0.0167997 -11.3519 -1.15758 1.06146 2.39704 -0.502255 1.06146 2.39705 -0.502238 -0.485561 1.58619 -5.05274 -28.3365 1.61146 -7.72158 -54.3257 40.7251 11.9509 15.0038 5.64061 -23.5256 -9.36222 -0.606906 -2.19043 -7.95139e-016 -6.36111e-015 7.95139e-016 -1.59028e-015 -6.36111e-015 -0 31.9616 6.72339 15.3079 31.0201 -22.0278 -6.92542 -45.5236 5.28101 83.2366 -50.9976 -2.83199 6.95821 1.27222e-014 -7.95139e-015 -2.5842e-015 1.59028e-014 -8.34896e-015 -2.78299e-015 -0.887218 5.68816 -4.83802 
